# xmcd CD database file
#
# Track frame offsets:
#	187
#	18465
#	36757
#	54987
#
# Disc length: 975 seconds
#
# Revision: 0
# Processed by: cddbd v1.5.1PL2 Copyright (c) Steve Scherf et al.
# Submitted via: CDex 1.51
#
DISCID=2803cd04
DTITLE=高橋由美子 - コートダジュールで逢いましょう
DYEAR=1900
DGENRE=Pop
TTITLE0=コートダジュールで逢いましょう
TTITLE1=太陽のバレリーナ
TTITLE2=コートダジュールで逢いましょう（オリジナル・カラオケ）
TTITLE3=太陽のバレリーナ（オリジナル・カラオケ）
EXTD=
EXTT0=
EXTT1=
EXTT2=
EXTT3=
PLAYORDER=
